<svg width="18" height="17" viewBox="0 0 18 17" fill="none" xmlns="http://www.w3.org/2000/svg">
<path d="M17 1.15595L15.9806 5.12984L12.1763 4.06504M1 15.844L2.01936 11.8702L5.82365 12.935M15.6325 4.5C14.8752 3.12973 13.7458 2.02483 12.3873 1.32502C11.0288 0.625212 9.50211 0.361922 8.00035 0.568447C6.49859 0.774972 5.08917 1.44204 3.95035 2.48529C2.81152 3.52854 1.99442 4.90111 1.60238 6.42945M2.36747 12.5C3.12484 13.8703 4.25418 14.9752 5.61269 15.675C6.97121 16.3748 8.49787 16.6381 9.99964 16.4316C11.5014 16.225 12.9108 15.558 14.0496 14.5147C15.1885 13.4715 16.0056 12.0989 16.3976 10.5706" stroke="black" stroke-linejoin="bevel"/>
</svg>
