<svg width="16" height="16" viewBox="0 0 16 16" fill="none" xmlns="http://www.w3.org/2000/svg">
<path fill-rule="evenodd" clip-rule="evenodd" d="M8 10C10.7614 10 13 7.76142 13 5C13 2.23858 10.7614 0 8 0C5.23858 0 3 2.23858 3 5C3 7.76142 5.23858 10 8 10ZM15.391 14.4693C15.7931 14.9546 16 15.4747 16 16H0C0 15.4747 0.206926 14.9546 0.608963 14.4693C1.011 13.984 1.60028 13.543 2.34315 13.1716C3.08601 12.8001 3.96793 12.5055 4.93853 12.3045C5.90914 12.1035 6.94942 12 8 12C9.05057 12 10.0909 12.1035 11.0615 12.3045C12.0321 12.5055 12.914 12.8001 13.6569 13.1716C14.3997 13.543 14.989 13.984 15.391 14.4693Z" fill="white"/>
</svg>
